<svg version="1.1" xmlns="http://www.w3.org/2000/svg" viewBox="0 0 1234.6507720947266 869.3334197998047" width="1234.6507720947266" height="869.3334197998047">
  <!-- svg-source:excalidraw -->
  
  <defs>
    <style class="style-fonts">
      @font-face {
        font-family: "Virgil";
        src: url("https://excalidraw.com/Virgil.woff2");
      }
      @font-face {
        font-family: "Cascadia";
        src: url("https://excalidraw.com/Cascadia.woff2");
      }
      @font-face {
        font-family: "Assistant";
        src: url("https://excalidraw.com/Assistant-Regular.woff2");
      }
    </style>
    
  </defs>
  <rect x="0" y="0" width="1234.6507720947266" height="869.3334197998047" fill="#ffffff"></rect><g stroke-linecap="round" transform="translate(348.666748046875 10) rotate(0 274.66668701171875 90.66667175292969)"><path d="M32 0 C182.04 0.21, 332.34 0.37, 517.33 0 M517.33 0 C537.81 0.9, 546.02 9.63, 549.33 32 M549.33 32 C554.16 63.67, 554.32 101.66, 549.33 149.33 M549.33 149.33 C546.17 170.26, 536.42 178.86, 517.33 181.33 M517.33 181.33 C375.21 181.74, 236.85 178.78, 32 181.33 M32 181.33 C9.1 184.78, 2.63 172.89, 0 149.33 M0 149.33 C-1.68 114.35, 0.12 76.81, 0 32 M0 32 C0.29 10.35, 14.4 1.58, 32 0" stroke="#1e1e1e" stroke-width="4.5" fill="none" stroke-dasharray="8 12"></path></g><g transform="translate(464.06939697265625 78.16667175292969) rotate(0 159.2640380859375 22.5)"><text x="159.2640380859375" y="31.536" font-family="Virgil, Segoe UI Emoji" font-size="36px" fill="#1e1e1e" text-anchor="middle" style="white-space: pre;" direction="ltr" dominant-baseline="alphabetic">Solve ASP problem</text></g><g stroke-linecap="round" transform="translate(19.99981689453125 394.6667022705078) rotate(0 274.66668701171875 90.66667175292969)"><path d="M7.86 8.16 C7.86 8.16, 7.86 8.16, 7.86 8.16 M7.86 8.16 C7.86 8.16, 7.86 8.16, 7.86 8.16 M8.78 31.49 C12.61 27.24, 21 20.22, 34.37 2.05 M8.78 31.49 C17.8 20.97, 29.5 6.64, 34.37 2.05 M8.39 56.32 C28.23 39.02, 43.81 17.96, 55.63 1.98 M8.39 56.32 C25.16 38.94, 40.2 19.06, 55.63 1.98 M8.66 80.4 C23.21 60.6, 46.65 40.53, 76.89 1.91 M8.66 80.4 C24.24 59, 40.11 42.54, 76.89 1.91 M8.93 104.49 C33.51 68.33, 58.68 44.39, 98.15 1.85 M8.93 104.49 C27.09 84.78, 44.89 60.79, 98.15 1.85 M8.54 129.32 C36.54 100.28, 59.79 72.88, 119.41 1.78 M8.54 129.32 C46.3 85.74, 82.35 45.15, 119.41 1.78 M3.55 159.44 C38.41 119.9, 72.27 85.11, 140.67 1.71 M3.55 159.44 C30.96 128.19, 59.39 94.67, 140.67 1.71 M11.69 174.47 C53.6 128.17, 92.24 84.29, 161.28 2.39 M11.69 174.47 C62.25 115.58, 112.37 59.96, 161.28 2.39 M23.77 184.96 C72.82 131.45, 116.3 72.06, 182.54 2.32 M23.77 184.96 C85.26 112.63, 149.84 41.13, 182.54 2.32 M41.09 189.42 C87.55 139.74, 129.03 90.26, 203.8 2.26 M41.09 189.42 C102.66 112.56, 167.73 38.19, 203.8 2.26 M62.35 189.35 C121.13 127.78, 176.61 60.14, 225.06 2.19 M62.35 189.35 C94.59 149.47, 133.39 107.92, 225.06 2.19 M83.61 189.29 C119.04 149.1, 151.32 106.41, 246.32 2.12 M83.61 189.29 C134.05 131.48, 183.37 73.2, 246.32 2.12 M104.87 189.22 C157.8 123.96, 210.86 64.09, 267.58 2.05 M104.87 189.22 C146.79 139.46, 186.69 91.79, 267.58 2.05 M126.13 189.15 C181.26 122.51, 240.5 60.09, 288.84 1.98 M126.13 189.15 C166.66 134.78, 211.63 84.57, 288.84 1.98 M147.39 189.08 C199.51 133.62, 245.59 75.4, 310.1 1.91 M147.39 189.08 C179.46 147.34, 215.24 108.18, 310.1 1.91 M168.65 189.01 C217.26 128.41, 271.65 66.05, 331.36 1.84 M168.65 189.01 C226.04 123.35, 285 53.72, 331.36 1.84 M189.26 189.69 C228.84 145.91, 267.24 95.51, 352.62 1.77 M189.26 189.69 C245.16 127.84, 298.27 64.54, 352.62 1.77 M210.52 189.63 C278.98 115.36, 337.98 47.48, 373.88 1.7 M210.52 189.63 C258.15 135.74, 303.04 84.8, 373.88 1.7 M231.78 189.56 C275.43 139.07, 316.63 91.99, 394.48 2.39 M231.78 189.56 C273.96 143.08, 315.46 98.53, 394.48 2.39 M253.04 189.49 C281.71 155.53, 315.29 113.72, 415.74 2.32 M253.04 189.49 C309.82 123.81, 364.76 58.17, 415.74 2.32 M274.3 189.42 C325.4 134.16, 374.01 74.66, 437 2.25 M274.3 189.42 C319.51 139.87, 360.82 90.66, 437 2.25 M295.56 189.35 C332.49 144.18, 374.92 99.66, 458.26 2.18 M295.56 189.35 C352.63 122.4, 408.88 58.64, 458.26 2.18 M316.82 189.28 C365.37 126.16, 421.13 67.93, 479.52 2.11 M316.82 189.28 C363.06 138.54, 404.88 90.19, 479.52 2.11 M338.08 189.21 C406.53 112.38, 469.05 45.11, 500.78 2.04 M338.08 189.21 C392.58 129.34, 445.4 68.52, 500.78 2.04 M359.34 189.14 C402.89 132.97, 455.32 82.51, 520.73 3.48 M359.34 189.14 C402.09 141.82, 442.41 94.41, 520.73 3.48 M380.6 189.07 C431.36 128.81, 479.47 68.14, 538.05 7.94 M380.6 189.07 C433.28 125.8, 485.26 65.67, 538.05 7.94 M401.86 189.01 C450.94 129.69, 503.94 72.59, 551.44 16.93 M401.86 189.01 C432.48 150.68, 466.85 110.02, 551.44 16.93 M422.46 189.69 C470.23 132.01, 523.86 75.43, 558.92 32.71 M422.46 189.69 C458.37 148.01, 495.24 108.05, 558.92 32.71 M443.72 189.62 C478.33 146.75, 513.39 111.82, 558.53 57.55 M443.72 189.62 C469.61 153.73, 500.7 123.06, 558.53 57.55 M464.98 189.55 C486.67 170.53, 506.64 141.06, 558.8 81.63 M464.98 189.55 C490.77 163.07, 517.43 132.12, 558.8 81.63 M486.24 189.48 C507.23 164.17, 536.31 133.13, 559.07 105.71 M486.24 189.48 C514.49 158.79, 540.09 129.14, 559.07 105.71 M507.5 189.41 C527.9 167.45, 551.3 143.32, 559.33 129.79 M507.5 189.41 C525.6 170.23, 544.41 149.67, 559.33 129.79" stroke="#ffc9c9" stroke-width="2" fill="none"></path><path d="M32 0 C136.46 1.02, 242.04 2.39, 517.33 0 M517.33 0 C534.84 1.73, 551.49 14.07, 549.33 32 M549.33 32 C550.94 62.35, 547.99 88.58, 549.33 149.33 M549.33 149.33 C548.09 174.54, 541.2 185.18, 517.33 181.33 M517.33 181.33 C352.43 178.64, 189.54 177.58, 32 181.33 M32 181.33 C10.08 177.5, -0.44 170.98, 0 149.33 M0 149.33 C-0.43 115.49, 0.62 76.68, 0 32 M0 32 C-3.57 11.84, 12.99 2.84, 32 0" stroke="#1e1e1e" stroke-width="4.5" fill="none" stroke-dasharray="8 12"></path></g><g transform="translate(89.55642700195312 440.3333740234375) rotate(0 205.11007690429688 45)"><text x="205.11007690429688" y="31.536" font-family="Virgil, Segoe UI Emoji" font-size="36px" fill="#1e1e1e" text-anchor="middle" style="white-space: pre;" direction="ltr" dominant-baseline="alphabetic">Solve a new problem </text><text x="205.11007690429688" y="76.536" font-family="Virgil, Segoe UI Emoji" font-size="36px" fill="#1e1e1e" text-anchor="middle" style="white-space: pre;" direction="ltr" dominant-baseline="alphabetic">to determine causation</text></g><g stroke-linecap="round" transform="translate(652.0001831054688 397.33338928222656) rotate(0 274.66668701171875 90.66667175292969)"><path d="M7.86 8.16 C7.86 8.16, 7.86 8.16, 7.86 8.16 M7.86 8.16 C7.86 8.16, 7.86 8.16, 7.86 8.16 M0.91 40.54 C13.06 31.25, 20.04 14.31, 36.34 -0.21 M0.91 40.54 C9.09 28.89, 22.24 20.42, 36.34 -0.21 M1.18 64.62 C18.77 49.18, 33.55 33.18, 57.6 -0.28 M1.18 64.62 C21.42 40.36, 39.68 18.93, 57.6 -0.28 M1.44 88.71 C26.94 54.56, 57.01 25.2, 78.2 0.41 M1.44 88.71 C26.35 61.83, 46.24 35.33, 78.2 0.41 M1.05 113.54 C27.82 90.36, 50.56 61.55, 99.46 0.34 M1.05 113.54 C41.86 71.33, 77.75 29.42, 99.46 0.34 M1.32 137.62 C43.57 82.64, 95.85 31.64, 120.72 0.27 M1.32 137.62 C47.78 79.02, 95.65 28.06, 120.72 0.27 M2.24 160.95 C38.94 121.5, 74.04 79.63, 141.98 0.2 M2.24 160.95 C40.03 122.76, 72.98 81.72, 141.98 0.2 M11.69 174.47 C58.21 117.29, 112.47 60.65, 163.24 0.13 M11.69 174.47 C55.55 120.15, 100.72 65.74, 163.24 0.13 M27.71 180.44 C68.68 132.94, 116.95 78.53, 184.5 0.06 M27.71 180.44 C84.69 113.07, 141.2 48.21, 184.5 0.06 M48.31 181.12 C85.84 135.32, 126.53 91.88, 205.76 -0.01 M48.31 181.12 C88.28 132.44, 130.51 85.46, 205.76 -0.01 M68.91 181.81 C112.72 137.28, 150.92 94.13, 227.02 -0.08 M68.91 181.81 C126.68 115.59, 187.31 46.18, 227.02 -0.08 M90.17 181.74 C122.67 143.43, 161.12 105.19, 248.28 -0.15 M90.17 181.74 C133.08 136.33, 173.28 93, 248.28 -0.15 M111.43 181.67 C142.95 141.24, 184.88 98.2, 269.54 -0.22 M111.43 181.67 C161.7 120.62, 209.75 63.18, 269.54 -0.22 M132.69 181.6 C183.8 126.33, 235.24 62.62, 290.8 -0.28 M132.69 181.6 C184.32 121.17, 235.13 62.1, 290.8 -0.28 M153.95 181.53 C186.37 139.99, 220.14 102.24, 311.41 0.4 M153.95 181.53 C192.44 138.48, 231.06 93.02, 311.41 0.4 M175.21 181.46 C231.33 113.58, 286.29 48.38, 332.67 0.33 M175.21 181.46 C218.27 135.18, 261.58 84.83, 332.67 0.33 M196.47 181.39 C251.15 118.54, 311.26 52.1, 353.93 0.26 M196.47 181.39 C228.15 144.43, 260.14 104.39, 353.93 0.26 M217.74 181.32 C264.51 129.6, 310.88 73.8, 375.19 0.19 M217.74 181.32 C278.34 111.97, 341.18 40.66, 375.19 0.19 M239 181.26 C296.35 118.77, 354.36 50.85, 396.45 0.12 M239 181.26 C283.49 127.17, 327.27 76.71, 396.45 0.12 M260.26 181.19 C322.51 112.32, 379.34 44.31, 417.71 0.06 M260.26 181.19 C299.65 133.12, 343.04 84.61, 417.71 0.06 M281.52 181.12 C323.92 134.81, 365.51 81.92, 438.97 -0.01 M281.52 181.12 C334.37 118.88, 389.08 58.86, 438.97 -0.01 M302.12 181.8 C347.45 133.73, 387.23 90.25, 460.23 -0.08 M302.12 181.8 C332.51 142.26, 365.22 106.51, 460.23 -0.08 M323.38 181.73 C355.06 143.36, 392.34 109.04, 481.49 -0.15 M323.38 181.73 C368.26 127.38, 413.83 75.11, 481.49 -0.15 M344.64 181.66 C391.94 130.96, 431.01 81.69, 502.75 -0.22 M344.64 181.66 C380.87 141.53, 418.23 96.16, 502.75 -0.22 M365.9 181.6 C419.2 126.4, 463.93 69.51, 522.7 1.22 M365.9 181.6 C426.39 112.09, 488.61 39.99, 522.7 1.22 M387.16 181.53 C440.09 117.5, 496.81 55.62, 538.71 7.19 M387.16 181.53 C428.74 131.71, 471.96 85.02, 538.71 7.19 M408.42 181.46 C438.51 140.82, 470.25 105.4, 547.51 21.46 M408.42 181.46 C466.46 115.33, 520.51 52.14, 547.51 21.46 M429.68 181.39 C467.73 133.03, 509.8 85.71, 549.08 44.03 M429.68 181.39 C471.96 129.91, 516.38 81.43, 549.08 44.03 M450.94 181.32 C489.86 137.7, 522.47 95.64, 548.69 68.87 M450.94 181.32 C490.42 135.57, 527.17 93.43, 548.69 68.87 M472.2 181.25 C493.96 163.06, 512.1 134.11, 548.96 92.95 M472.2 181.25 C490.29 159.4, 509.76 133.25, 548.96 92.95 M493.46 181.18 C504.63 166.42, 522.05 145.81, 549.23 117.03 M493.46 181.18 C510.03 162.34, 527.82 142.83, 549.23 117.03 M514.72 181.11 C523.87 164.57, 542.01 150.58, 549.49 141.11 M514.72 181.11 C519.92 173.43, 527.11 163.22, 549.49 141.11" stroke="#b2f2bb" stroke-width="2" fill="none"></path><path d="M32 0 C164.03 -4.57, 295.86 -3.69, 517.33 0 M517.33 0 C539.76 -2.97, 546.76 13.85, 549.33 32 M549.33 32 C549.07 65.54, 550.51 103.77, 549.33 149.33 M549.33 149.33 C546.32 172.81, 538.09 181.98, 517.33 181.33 M517.33 181.33 C386.36 184.41, 255.03 184.04, 32 181.33 M32 181.33 C13.81 183.56, -2.24 170.11, 0 149.33 M0 149.33 C1.72 127.02, -2.61 102.83, 0 32 M0 32 C-0.39 8.2, 14.26 1.61, 32 0" stroke="#1e1e1e" stroke-width="4.5" fill="none" stroke-dasharray="8 12"></path></g><g transform="translate(728.7207946777344 466.8333740234375) rotate(0 197.94607543945312 22.5)"><text x="197.94607543945312" y="31.536" font-family="Virgil, Segoe UI Emoji" font-size="36px" fill="#1e1e1e" text-anchor="middle" style="white-space: pre;" direction="ltr" dominant-baseline="alphabetic">Return concrete specs</text></g><g stroke-linecap="round"><g transform="translate(638.0001220703125 191.33334350585938) rotate(0 184.33331298828125 98.00001525878906)"><path d="M-2.72 2.04 C51.47 14.2, 261.52 40.05, 323.48 72.73 C385.44 105.41, 361.93 177.74, 369.03 198.14" stroke="#2f9e44" stroke-width="4.5" fill="none" stroke-dasharray="8 12"></path></g><g transform="translate(638.0001220703125 191.33334350585938) rotate(0 184.33331298828125 98.00001525878906)"><path d="M370.82 197.44 L363.61 186.7 L376.72 184.32 L370.33 200.12" stroke="none" stroke-width="0" fill="#2f9e44" fill-rule="evenodd"></path><path d="M370.12 198.93 C368.13 195.07, 366.87 190.29, 361.66 186.07 M363.12 184.44 C365.38 183.42, 368.3 185.49, 373.95 185.53 M373.46 184.13 C374.52 187.96, 372.16 192.36, 370.17 198.38 M369.03 198.14 C369.03 198.14, 369.03 198.14, 369.03 198.14" stroke="#2f9e44" stroke-width="4.5" fill="none"></path></g></g><mask></mask><g stroke-linecap="round"><g transform="translate(626.1686480876442 192.33334350585938) rotate(0 -186.9477616517363 99.50001525878906)"><path d="M0.09 -1.16 C-52.94 8.47, -254.76 22.26, -317.43 55.68 C-380.11 89.09, -366.97 175.92, -375.97 199.35" stroke="#e03131" stroke-width="4.5" fill="none" stroke-dasharray="8 12"></path></g><g transform="translate(626.1686480876442 192.33334350585938) rotate(0 -186.9477616517363 99.50001525878906)"><path d="M-377.27 199.4 L-381.39 184.19 L-369.81 187.03 L-376.88 197.61" stroke="none" stroke-width="0" fill="#e03131" fill-rule="evenodd"></path><path d="M-376.6 199.03 C-378.38 193.56, -378.58 191.29, -381.88 184.33 M-381.51 184.54 C-376.59 186.29, -374.14 184.86, -366.76 186.86 M-367.32 187.13 C-371.31 191.43, -372.41 194.12, -374.52 199.69 M-375.97 199.35 C-375.97 199.35, -375.97 199.35, -375.97 199.35" stroke="#e03131" stroke-width="4.5" fill="none"></path></g></g><mask></mask><g stroke-linecap="round" transform="translate(10 678.0000762939453) rotate(0 274.66668701171875 90.66667175292969)"><path d="M7.86 8.16 C7.86 8.16, 7.86 8.16, 7.86 8.16 M7.86 8.16 C7.86 8.16, 7.86 8.16, 7.86 8.16 M0.91 40.54 C15.5 29.23, 22.23 13.89, 36.34 -0.21 M0.91 40.54 C10.64 27.79, 21.93 19.72, 36.34 -0.21 M1.18 64.62 C18.19 47.4, 38.42 24.82, 57.6 -0.28 M1.18 64.62 C19.46 45.18, 33.56 28.49, 57.6 -0.28 M1.44 88.71 C32.35 57.54, 67.16 20.47, 78.2 0.41 M1.44 88.71 C19.07 64.48, 41.16 39.71, 78.2 0.41 M1.05 113.54 C40.71 70.64, 73.62 33.58, 99.46 0.34 M1.05 113.54 C38.92 70.29, 75.37 28.5, 99.46 0.34 M1.32 137.62 C46.85 90.02, 87.78 37.04, 120.72 0.27 M1.32 137.62 C36.6 96.27, 72.65 54.7, 120.72 0.27 M2.24 160.95 C32.89 122.67, 70.17 87.02, 141.98 0.2 M2.24 160.95 C30.28 122.42, 63.43 85.84, 141.98 0.2 M11.69 174.47 C64.52 113.02, 115.88 52.28, 163.24 0.13 M11.69 174.47 C63 110.78, 116.43 50.38, 163.24 0.13 M27.71 180.44 C88.56 114.88, 146.94 47.97, 184.5 0.06 M27.71 180.44 C82.58 116.72, 136.27 55.75, 184.5 0.06 M48.31 181.12 C107.35 116.95, 161.65 56.81, 205.76 -0.01 M48.31 181.12 C85.26 139.9, 121.58 99.04, 205.76 -0.01 M68.91 181.81 C121.75 121.95, 172.02 57.18, 227.02 -0.08 M68.91 181.81 C107.69 137.35, 146.61 89.06, 227.02 -0.08 M90.17 181.74 C152.42 112.44, 211.84 41.51, 248.28 -0.15 M90.17 181.74 C144.04 123.91, 193.41 68.24, 248.28 -0.15 M111.43 181.67 C146.45 135.39, 187.19 85.56, 269.54 -0.22 M111.43 181.67 C160.26 124.54, 210.16 67.65, 269.54 -0.22 M132.69 181.6 C190.89 119.65, 245.72 58.92, 290.8 -0.28 M132.69 181.6 C182.06 125.87, 224.63 76.62, 290.8 -0.28 M153.95 181.53 C214.25 110.12, 274.99 41.68, 311.41 0.4 M153.95 181.53 C190.56 136.89, 227.43 93.77, 311.41 0.4 M175.21 181.46 C225.61 126.06, 274.13 70.17, 332.67 0.33 M175.21 181.46 C225.17 129.76, 271.38 74.87, 332.67 0.33 M196.47 181.39 C250.52 116.07, 304.48 52.02, 353.93 0.26 M196.47 181.39 C226.17 142.31, 262.63 102.84, 353.93 0.26 M217.74 181.32 C258.07 136.52, 291.73 98.94, 375.19 0.19 M217.74 181.32 C258.83 137.83, 295.67 92.64, 375.19 0.19 M239 181.26 C281.7 131.82, 327.1 84.27, 396.45 0.12 M239 181.26 C301.3 108.4, 365.84 33.96, 396.45 0.12 M260.26 181.19 C310.35 131.64, 354.37 71.86, 417.71 0.06 M260.26 181.19 C313.84 124.78, 364.63 64.87, 417.71 0.06 M281.52 181.12 C322.66 139.61, 356.91 90.39, 438.97 -0.01 M281.52 181.12 C341.12 113.95, 400.22 45.84, 438.97 -0.01 M302.12 181.8 C357.77 115.51, 411.67 53.54, 460.23 -0.08 M302.12 181.8 C339.13 136.98, 374.98 91.75, 460.23 -0.08 M323.38 181.73 C367.56 128.53, 408.06 83.04, 481.49 -0.15 M323.38 181.73 C369.34 128.52, 415.37 72.37, 481.49 -0.15 M344.64 181.66 C386.03 139.21, 419.28 92.53, 502.75 -0.22 M344.64 181.66 C377.27 144.24, 411.77 106.76, 502.75 -0.22 M365.9 181.6 C418.6 120.86, 475.8 56.57, 522.7 1.22 M365.9 181.6 C428.74 107.61, 491.99 34.56, 522.7 1.22 M387.16 181.53 C431.9 132.79, 475.61 80.83, 538.71 7.19 M387.16 181.53 C439.79 122.68, 494.77 59.75, 538.71 7.19 M408.42 181.46 C460.11 132.35, 507.28 77.72, 547.51 21.46 M408.42 181.46 C446.7 140.48, 481.39 98.8, 547.51 21.46 M429.68 181.39 C457.07 147.43, 491.26 120.04, 549.08 44.03 M429.68 181.39 C467.63 140.12, 504.49 100.09, 549.08 44.03 M450.94 181.32 C479.2 147.6, 515.48 109.02, 548.69 68.87 M450.94 181.32 C481.43 148.46, 514.48 113.21, 548.69 68.87 M472.2 181.25 C497.04 155.84, 514.95 129.65, 548.96 92.95 M472.2 181.25 C485.87 163.5, 504.29 145.12, 548.96 92.95 M493.46 181.18 C510.21 162.55, 523.88 145.22, 549.23 117.03 M493.46 181.18 C512.5 157.51, 532.49 135.57, 549.23 117.03 M514.72 181.11 C522.04 168.16, 531.43 160.23, 549.49 141.11 M514.72 181.11 C525.08 168.2, 534.6 155.08, 549.49 141.11" stroke="#ffc9c9" stroke-width="2" fill="none"></path><path d="M32 0 C216.23 -0.55, 402.45 -0.72, 517.33 0 M517.33 0 C541.37 1.84, 548.22 9.47, 549.33 32 M549.33 32 C545.75 60.09, 546.75 98.64, 549.33 149.33 M549.33 149.33 C548.14 172.21, 542.65 179.29, 517.33 181.33 M517.33 181.33 C355.83 183.8, 192.05 183.78, 32 181.33 M32 181.33 C11.91 182.78, -2.35 173.02, 0 149.33 M0 149.33 C-4.61 122.61, -1.36 87.04, 0 32 M0 32 C-1.24 14.32, 10.78 -1.7, 32 0" stroke="#1e1e1e" stroke-width="4.5" fill="none" stroke-dasharray="8 12"></path></g><g transform="translate(52.564666748046875 223.0833282470703) rotate(0 114.10202026367188 22.5)"><text x="114.10202026367188" y="31.536" font-family="Virgil, Segoe UI Emoji" font-size="36px" fill="#e03131" text-anchor="middle" style="white-space: pre;" direction="ltr" dominant-baseline="alphabetic">error(...) &gt;= 1</text></g><g transform="translate(976.6827239990234 223.0833282470703) rotate(0 123.98402404785156 22.5)"><text x="123.98402404785156" y="31.536" font-family="Virgil, Segoe UI Emoji" font-size="36px" fill="#2f9e44" text-anchor="middle" style="white-space: pre;" direction="ltr" dominant-baseline="alphabetic">error(...) == 0</text></g><g stroke-linecap="round"><g transform="translate(262.666748046875 574.6666870117188) rotate(0 -2.333343505859375 45.666656494140625)"><path d="M-1.7 0.82 C-1.88 16.19, -2.58 76.62, -2.78 91.97" stroke="#e03131" stroke-width="4.5" fill="none" stroke-dasharray="8 12"></path></g><g transform="translate(262.666748046875 574.6666870117188) rotate(0 -2.333343505859375 45.666656494140625)"><path d="M-2.47 90.57 L-10.62 78.34 L1.92 78.77 L-2.2 90.36" stroke="none" stroke-width="0" fill="#e03131" fill-rule="evenodd"></path><path d="M-2.34 92.98 C-3.9 89.61, -4.88 85.18, -7.75 78.25 M-10.16 79.23 C-4.07 78.74, -1.07 79.16, 3.82 78.38 M2.97 79.69 C1.88 81.42, 0.85 84.51, -3.04 92.46 M-2.78 91.97 C-2.78 91.97, -2.78 91.97, -2.78 91.97" stroke="#e03131" stroke-width="4.5" fill="none"></path></g></g><mask></mask><g transform="translate(84.92062377929688 746.166748046875) rotate(0 199.74606323242188 22.5)"><text x="199.74606323242188" y="31.536" font-family="Virgil, Segoe UI Emoji" font-size="36px" fill="#1e1e1e" text-anchor="middle" style="white-space: pre;" direction="ltr" dominant-baseline="alphabetic">Emit an error message</text></g></svg>